<svg id="Layer_1" data-name="Layer 1" xmlns="http://www.w3.org/2000/svg" viewBox="0 0 633.7 210.96"><defs><style>.cls-1{fill:rgba(255,255,255,0.5);}</style></defs><title>logo_ws</title><path class="cls-1" d="M148.83,168.8c-1.15,2-2.32,3.81-3.49,5.57-.84,1.1-1.67,2.21-2.51,3.32s-1.66,2.19-2.5,3.25-1.94,2.35-2.87,3.46-1.91,2.21-2.94,3.32l-3.09,3.15q-1.32,1.35-2.58,2.52c-.83.79-1.73,1.6-2.68,2.43s-2.1,1.8-3.42,2.9c-1,.79-2.1,1.66-3.35,2.63s-2.61,2-4.09,2.94-3,2-4.63,2.87a33.48,33.48,0,0,1-4.9,2.32,25,25,0,0,1-4.89,1.32,12.36,12.36,0,0,1-4.63-.11,12.51,12.51,0,0,1-6.63-3.25,13.63,13.63,0,0,1-3.46-5.88,24.79,24.79,0,0,1-.92-7.65,52.79,52.79,0,0,1,1-8.68,65.61,65.61,0,0,1,2.43-9.06q1.54-4.5,3.27-8.51t3.42-7.24q1.69-3.21,2.94-5.15-2.06.48-8,3.81T74.55,168.9q-6.7,4.36-14.72,10.35a134.42,134.42,0,0,0-16.19,14.42,17.94,17.94,0,0,1-4.82,3.84c-1.4.67-2.48.8-3.24.38s-1.14-1.37-1.14-2.87A17.78,17.78,0,0,1,35.92,189c.39-1,.79-1.95,1.21-2.81s.77-1.58,1.07-2.17a71.48,71.48,0,0,1,5.33-9q3.06-4.38,7.32-9.37t10-10.9q5.71-5.91,13.29-13.46a44.88,44.88,0,0,0,4.89-5c1-1.24,1.38-2.2,1.29-2.87s-.68-1.15-1.73-1.45a39.37,39.37,0,0,0-4.09-.87,32,32,0,0,0-4.3-.27c-1.55,0-3.13.05-4.75.17s-3.19.27-4.71.48l-4.12.59q-5,.82-10.37,2.11t-10.64,3q-5.25,1.73-10.23,3.94A73.18,73.18,0,0,0,16.12,146a27.63,27.63,0,0,0-5.55,3.73,18.67,18.67,0,0,0-4,4.85,15.62,15.62,0,0,0-1.95,5.81,15.31,15.31,0,0,0,.63,6.5l-4.64-5c0-.18,0-.37,0-.55-.07,0-4.15-20.28,11.25-29.43C91.48,84.49,198.55,75.8,318.55,108.48c88.84,24.19,198.33,6.09,255.36-71.75a4.11,4.11,0,0,1,5.72-1c1.86,1.3,3.26,4.13,2,6-62.69,84.39-179.7,91.94-274.5,69.65C211,88.77,113.67,92.76,37.78,132.8q3.73-1.14,7.52-2.06,5.55-1.35,10.78-2.18c1.27-.18,2.73-.36,4.38-.52s3.31-.29,5-.38,3.37-.15,5-.17a38.87,38.87,0,0,1,4.49.17,21,21,0,0,1,5.81,1.14,5.28,5.28,0,0,1,3.35,2.81c.51,1.24.26,2.86-.77,4.84s-3.24,4.43-6.63,7.33-6.7,6-10.26,9.55-7,7.34-10.34,11.35a152.37,152.37,0,0,0-9.38,12.56,88.74,88.74,0,0,0-7.32,13.11,10.65,10.65,0,0,0-.66,1.49,3.8,3.8,0,0,0-.3,1.24c0,.3.12.42.37.35a5,5,0,0,0,1.4-1.14q1.62-1.8,3.34-3.43t3.72-3.42q4.63-4.16,10-8.34t10.93-8c2.06-1.48,4.11-2.87,6.15-4.19s4-2.57,5.92-3.77q3.31-2.07,6.81-4.05c2.33-1.31,4.72-2.55,7.17-3.7.64-.32,1.33-.63,2.06-.93a19.37,19.37,0,0,1,2.14-.73,8.66,8.66,0,0,1,1.87-.31,3.18,3.18,0,0,1,1.44.24,1.57,1.57,0,0,1,.59,1.56,9.66,9.66,0,0,1-1.18,3.29q-1.19,2.07-2.8,5.25t-3.27,7.06c-1.11,2.58-2.15,5.31-3.13,8.17a62.46,62.46,0,0,0-2.28,8.51q-2.06,9.88,0,15.6a9.26,9.26,0,0,0,8.09,6.47,11.85,11.85,0,0,0,5.67-.8,36.37,36.37,0,0,0,6.14-3,64.37,64.37,0,0,0,5.85-3.95q2.81-2.1,4.86-3.77c2-1.66,4-3.41,5.92-5.26s3.79-3.71,5.56-5.6a68.19,68.19,0,0,0,5.45-6.37l2.5-3.21c.83-1.09,1.62-2.18,2.35-3.29,1.18-1.66,2.33-3.43,3.46-5.29s2.18-3.77,3.16-5.71a63.7,63.7,0,0,0,2.65-5.92,48.84,48.84,0,0,0,1.92-5.91,25,25,0,0,0,.66-4.15,17.1,17.1,0,0,0-.22-4.16,13.75,13.75,0,0,0-1.44-4.08,15,15,0,0,0-3.05-3.87l-.37-5.89a49.45,49.45,0,0,1,4.67,4.85,18.75,18.75,0,0,1,3,5,16.55,16.55,0,0,1,1.14,5.81,29.74,29.74,0,0,1-.88,7.3,45.24,45.24,0,0,1-2,6.19c-.83,2.1-1.76,4.17-2.79,6.23S150,166.84,148.83,168.8ZM219.54,147h9.1l-1.7,3h-9.59c-1.43,2-2.8,3.88-4.1,5.74q-3.45,5-7.13,10.24-2.66,3.88-5,7.68a86.31,86.31,0,0,0-4.41,8.1q-1.69,3.94-1.11,4.74t3.46-1c.74-.37,1.67-.9,2.8-1.59s2.28-1.43,3.46-2.22,2.29-1.53,3.35-2.25,1.87-1.28,2.46-1.69l.3,3q-.73.55-1.95,1.35l-2.65,1.73-3,1.94-3,1.9a27.88,27.88,0,0,1-4.08,1.94,5,5,0,0,1-3.72.07,2.11,2.11,0,0,1-1.4-1.87,9.13,9.13,0,0,1,.37-3.25c.2-.72.46-1.46.76-2.23l-1.71,1.12c-1,.65-2,1.3-3.06,2s-2.07,1.28-3.05,1.84a11.79,11.79,0,0,1-2.54,1.55,11.33,11.33,0,0,1-2.94.9,9.81,9.81,0,0,1-3.06,0,7.63,7.63,0,0,1-2.87-1.07,6.57,6.57,0,0,1-.66-.55,3.82,3.82,0,0,1-.74-1,3.26,3.26,0,0,1-.33-1.21,1.81,1.81,0,0,1,.48-1.24,2.39,2.39,0,0,1,1.84-.45,3.56,3.56,0,0,1,2.58,1.35,3,3,0,0,0,2.72,1,5.55,5.55,0,0,0,3-1.1,2.8,2.8,0,0,0,1-1.52,8.58,8.58,0,0,0,.18-1.8,3.52,3.52,0,0,0-.4-1.53,12.3,12.3,0,0,0-1-1.62c-.37-.53-.72-1-1.06-1.46s-.62-.79-.81-1.07a1.11,1.11,0,0,1-.26-.38,1.8,1.8,0,0,0-.26-.41.44.44,0,0,0-.44-.14,1.62,1.62,0,0,0-.74.38q-2,1.51-3.68,2.94a43.64,43.64,0,0,1-4.12,3l-.06-.11-2.88,2a63.94,63.94,0,0,1-5.74,3.49,29.22,29.22,0,0,1-6.07,2.49,9.07,9.07,0,0,1-5.48,0,3.74,3.74,0,0,1-2.72-3.26,12.43,12.43,0,0,1,.66-5.67,26.77,26.77,0,0,1,2.24-4.64,37,37,0,0,1,3.75-5.22,28.14,28.14,0,0,1,4.86-4.46,14,14,0,0,1,5.56-2.49,4.65,4.65,0,0,1,2.9.31,3.29,3.29,0,0,1,1.59,1.62,4.17,4.17,0,0,1,.22,2.32,4.78,4.78,0,0,1-1.11,2.32,20.13,20.13,0,0,1-3,2.7c-1.3,1-2.71,1.92-4.23,2.87s-3.08,1.83-4.67,2.66-3.06,1.55-4.38,2.15a10.29,10.29,0,0,0-1,3.08,2.7,2.7,0,0,0,.56,2.25,2.39,2.39,0,0,0,2.05.52,15.14,15.14,0,0,0,3-.52,35.73,35.73,0,0,0,3.68-1.56c1.28-.62,2.55-1.31,3.83-2.08s2.55-1.55,3.83-2.38l1.25-.83h0l3-2.22c.8-.6,1.54-1.17,2.2-1.73s1.32-1.13,2-1.73,1.43-1.31,2.36-2.14a30.79,30.79,0,0,0,2.79-3.22A28.73,28.73,0,0,1,185,165q.66-.63,1.47-1.32a15.47,15.47,0,0,1,1.62-1.21,5.69,5.69,0,0,1,1.58-.73,1.42,1.42,0,0,1,1.29.21c.39.23.49.87.29,1.91a8.47,8.47,0,0,1-2.57,3.84c-1.38,1.42-2.44,2.49-3.2,3.18s-1.34,1.22-1.73,1.59a2.79,2.79,0,0,0-.7.86,3.15,3.15,0,0,0-.11,1,2.73,2.73,0,0,0,.55,1.21c.32.44.63.84.92,1.21a35.31,35.31,0,0,0,2.1,2.91,4.56,4.56,0,0,1,1.06,3l4.53-3,3.06-2,.47-.85c.71-1.25,1.38-2.34,2-3.29s1-1.6,1.21-2q2.07-3.26,4.09-6.33l4.08-6.19q3.08-4.45,6-8.93h-5.42l1.77-3H215a92.76,92.76,0,0,1,7.09-9.21c.19-.23.45-.52.77-.86a7.31,7.31,0,0,1,.84-.8,6.7,6.7,0,0,1,2.76-1.48c.91-.21,1.37-.06,1.37.44a10.72,10.72,0,0,1-1.18,2c-.69,1-1.44,2.09-2.25,3.22s-1.57,2.18-2.28,3.15-1.14,1.56-1.29,1.8Zm-64.64,29.4c1.13-.5,2.32-1.09,3.57-1.76a33.34,33.34,0,0,0,3.79-2.39,22.47,22.47,0,0,0,2.94-2.56,4,4,0,0,0,1.26-2.42c0-.37-.19-.57-.7-.59a4.68,4.68,0,0,0-2.18.73,14,14,0,0,0-1.91,1.31,43.76,43.76,0,0,0-3.24,3.08,31.15,31.15,0,0,0-2.06,2.53c-.24.37-.49.71-.73,1S155.15,176.07,154.9,176.44ZM549.23,12.56C569.84,9.28,582.46,24.74,586,32.29c.67,1.43,1.63,4.91,2.12,5.63,2.15,3.13,6.87,2.51,7.21-1.11C596.28,21.45,569.16-1,540,9.37c-39.56,14.05-51.24,77.77-108.93,103.3C493.16,95.4,506.16,19.43,549.23,12.56ZM239.38,144.75a47.85,47.85,0,0,1,5.66-4.88q3.32-2.44,7-4.74a77.3,77.3,0,0,1,7.35-4.11q4.13-2,8.76-3.88t9.57-3.39q4.92-1.56,9.78-2.59a84.82,84.82,0,0,1,9.5-1.49,47.84,47.84,0,0,1,8.68-.1,34.66,34.66,0,0,1,6,1.07,14.06,14.06,0,0,1,4.75,2.14,4.55,4.55,0,0,1,2,3.26c.12,1.26-.67,2.73-2.39,4.39a28.1,28.1,0,0,1-3.94,3.29,57.63,57.63,0,0,1-5.07,3.21,50.17,50.17,0,0,1-5.41,2.67,29,29,0,0,1-4.93,1.62l-4.34,5.33q2.35-.69,5.41-1.66c2-.64,4.12-1.39,6.25-2.25s4.24-1.81,6.33-2.87a35.39,35.39,0,0,0,5.7-3.6,26.26,26.26,0,0,0,4.12-3.87,13.49,13.49,0,0,0,2.69-4.57,6.43,6.43,0,0,0-.19-4.63q-.94-2.3-4.49-4.09A29.17,29.17,0,0,0,307,115.83a63.93,63.93,0,0,0-11.55.21,85.05,85.05,0,0,0-12.51,2.25,127.88,127.88,0,0,0-23.84,8.65,92.75,92.75,0,0,0-9.42,5.15c-1.37.88-3.07,2-5.08,3.42a64.93,64.93,0,0,0-5.92,4.71,42.47,42.47,0,0,0-5.19,5.5,13.36,13.36,0,0,0-2.8,5.81,7.76,7.76,0,0,0,1.22,5.64c1.15,1.82,3.42,3.5,6.81,5a33.81,33.81,0,0,0,4.74,1.59c1.65.42,3.28.85,4.89,1.32q4.93,1.38,9.65,2.45a53.72,53.72,0,0,1,9.34,3.08,30.44,30.44,0,0,1,7.4,4.19,7.87,7.87,0,0,1,3,4.36,6.6,6.6,0,0,1-1.18,4.81,27.47,27.47,0,0,1-5.08,5.6,56.49,56.49,0,0,1-9.71,6.78,62.07,62.07,0,0,1-11.19,4.91,25.52,25.52,0,0,1-5.26,1.11,22.53,22.53,0,0,1-4.93,0,12,12,0,0,1-3.79-1,3.12,3.12,0,0,1-1.84-1.94,3.36,3.36,0,0,1,1.33-3,20.18,20.18,0,0,1,4.37-3,57.05,57.05,0,0,1,6.22-2.84c2.31-.9,4.55-1.7,6.74-2.42s4.18-1.31,6-1.8,3.17-.82,4.05-1l-7.58-1.66a37.53,37.53,0,0,0-4.86,1,57.42,57.42,0,0,0-5.74,1.9,59,59,0,0,0-5.81,2.63,35.08,35.08,0,0,0-5.15,3.22,17.73,17.73,0,0,0-3.64,3.59,5.9,5.9,0,0,0-1.29,3.74,4.62,4.62,0,0,0,1.95,3.6,12.38,12.38,0,0,0,4.86,2.14,27.22,27.22,0,0,0,6.69.63,34.94,34.94,0,0,0,7.47-1,44.05,44.05,0,0,0,6.59-2.08,54.13,54.13,0,0,0,6.33-3q3-1.74,5.85-3.7a63.2,63.2,0,0,0,5.15-4.05,42.29,42.29,0,0,0,5-5.23,12.26,12.26,0,0,0,2.58-5.22,8.3,8.3,0,0,0-.81-5.33,15.92,15.92,0,0,0-5.15-5.46,30.92,30.92,0,0,0-6-3.39q-3.32-1.46-6.81-2.6t-7.07-2l-6.73-1.62a35.64,35.64,0,0,1-9.31-3.32,9.42,9.42,0,0,1-4.12-4,5.56,5.56,0,0,1,.11-4.53A16.5,16.5,0,0,1,239.38,144.75ZM604,3.29a3.32,3.32,0,0,0,3.15,2.92c18.44,2.91,17.62,23,14.64,35.6a22.23,22.23,0,0,0,4.82-11.45C630.58,2.4,602.53-5.21,604,3.29ZM581,7.2c.51,2.75,2.77,4.88,5.13,4.75,33.4,4.09,30.07,37.8,23.81,57.92,3.19-7.17,8.31-12.61,8.5-26.88C619,2.92,579.5-.92,581,7.2Zm19.26,47.31c-2.5.32-4.56,4.16-4.24,6.65,1.27,34.61-110.09,59.87-136.77,63-4.23.49-20.5.94-23.23,1.92a4.85,4.85,0,0,0,1.8.44h0l10.19,1C482.49,128.9,605.53,106.29,605.05,60,604.73,57.52,602.74,54.2,600.25,54.51ZM616.9.86c3.85,3.12,7.8,3.68,12.28,3.82.27,3.26-.86,10.06,1.19,16.85.47-1.79,2.11-16,3.33-20.66C633.72.82,622.35,1.76,616.9.86ZM409.36,177.34l.37,3c-.54.37-1.23.81-2.06,1.35s-1.74,1.11-2.72,1.76-2,1.3-3.06,2-2.07,1.28-3.05,1.84a11.79,11.79,0,0,1-2.54,1.55,11.33,11.33,0,0,1-2.94.9,9.81,9.81,0,0,1-3.06,0,7.56,7.56,0,0,1-2.87-1.07,5.6,5.6,0,0,1-.66-.55,3.82,3.82,0,0,1-.74-1,3.26,3.26,0,0,1-.33-1.21,1.81,1.81,0,0,1,.48-1.24,2.39,2.39,0,0,1,1.84-.45,3.56,3.56,0,0,1,2.58,1.35,3,3,0,0,0,2.72,1,5.55,5.55,0,0,0,3-1.1,2.8,2.8,0,0,0,1-1.52,8.58,8.58,0,0,0,.18-1.8,3.52,3.52,0,0,0-.4-1.53,12.3,12.3,0,0,0-1-1.62c-.37-.53-.72-1-1.07-1.46s-.61-.79-.8-1.07a1.11,1.11,0,0,1-.26-.38,1.8,1.8,0,0,0-.26-.41.45.45,0,0,0-.44-.14,1.62,1.62,0,0,0-.74.38q-2,1.51-3.68,2.94a43.64,43.64,0,0,1-4.12,3h0l-1.4.93q-1.9,1.29-4,2.56c-1.39.86-2.77,1.66-4.12,2.42a18,18,0,0,1-3.35,1.56c-1.27.42-2.15.45-2.64.1a1.94,1.94,0,0,1-.78-1.62,8,8,0,0,1,.45-2.6,26.28,26.28,0,0,1,1.06-2.8l.3-.55c-1,.92-2.05,1.77-3.06,2.56s-2,1.5-2.83,2.14c-.39.28-1,.67-1.88,1.18a16.67,16.67,0,0,1-2.76,1.31,8.53,8.53,0,0,1-2.83.59,2.58,2.58,0,0,1-2.17-.93,4.13,4.13,0,0,1-.66-3.25,10.56,10.56,0,0,1,.59-2.23c-1.1.74-2.22,1.5-3.39,2.26q-2.06,1.35-4.05,2.53a16.79,16.79,0,0,1-3.31,1.59,5.86,5.86,0,0,1-2.43-.11,2.35,2.35,0,0,1-1.84-1.48,7.69,7.69,0,0,1,.81-4.29,33.22,33.22,0,0,1,2.76-4.85q1.67-2.42,3.43-4.56t2.87-3.6a3,3,0,0,0,.73-1.35c0-.25-.22-.22-.66.1-1.72,1.3-3.62,2.85-5.7,4.67s-4.22,3.73-6.41,5.71-4.36,3.92-6.54,5.81-4.26,3.56-6.22,5a1.54,1.54,0,0,1-1.47-.07,1.35,1.35,0,0,1-.74-1.25q.89-1.86,2.1-4t2.5-4.29q1.29-2.18,2.5-4.25c.81-1.39,1.56-2.7,2.24-4-.54.47-1,.89-1.43,1.28s-1,.89-1.73,1.49-1.74,1.37-3,2.32-3.06,2.2-5.37,3.77l0-.1-1.74,1.17q-1.92,1.29-4,2.56c-1.4.86-2.78,1.66-4.12,2.42a18.26,18.26,0,0,1-3.35,1.56,3.73,3.73,0,0,1-2.32.28,1.43,1.43,0,0,1-1-1.07,4.35,4.35,0,0,1,.08-1.94,18.35,18.35,0,0,1,.69-2.32c-.53.42-1,.82-1.5,1.21a15.76,15.76,0,0,1-1.44,1.07c-.39.28-1,.67-1.88,1.18A16.2,16.2,0,0,1,297,189.1a8.64,8.64,0,0,1-2.84.59,2.58,2.58,0,0,1-2.17-.93,4.13,4.13,0,0,1-.66-3.25,13.81,13.81,0,0,1,1.54-4.36,31.18,31.18,0,0,1,3.28-4.85,43.72,43.72,0,0,1,4.45-4.7,41.92,41.92,0,0,1,5-3.77,29.8,29.8,0,0,1,5.11-2.7,15.27,15.27,0,0,1,4.79-1.14,7,7,0,0,1,4,.83,1.64,1.64,0,0,1,.77,1,3.25,3.25,0,0,1,0,1.52,5.3,5.3,0,0,1-.77,1.73,9.66,9.66,0,0,1-1.47,1.73,13.17,13.17,0,0,1-1.73.17c-.62,0-1.22,0-1.81,0a6.26,6.26,0,0,0,1.48-2.08,1.67,1.67,0,0,0,0-1.52,1.62,1.62,0,0,0-1.44-.56,7.23,7.23,0,0,0-2.83.83c-.79.37-1.52.74-2.21,1.11s-1.37.79-2.06,1.25c-1,.69-2,1.4-2.9,2.14s-1.86,1.52-2.84,2.36c-.34.32-1,1-1.88,2a39.69,39.69,0,0,0-2.64,3.32,19.61,19.61,0,0,0-2,3.46c-.49,1.11-.49,1.92,0,2.42a1.27,1.27,0,0,0,1.4.21,8.69,8.69,0,0,0,2.13-1c.79-.49,1.65-1.07,2.58-1.77s1.84-1.4,2.72-2.14,1.77-1.52,2.65-2.35,1.72-1.64,2.5-2.43,1.51-1.52,2.17-2.21,1.22-1.29,1.66-1.8l3.83.21c-.69.64-1.39,1.36-2.1,2.14s-1.49,1.59-2.32,2.43a32.36,32.36,0,0,0-2.21,3.07,31.73,31.73,0,0,0-1.87,3.29,4.08,4.08,0,0,0-.59,2.15c.07.46.65.37,1.73-.28.63-.42,1.49-1,2.57-1.66l3.39-2.15,3.38-2.11c.32-.2.62-.38.89-.56v0a69.18,69.18,0,0,0,10.15-8q3.75-3.74,6-6.16a5.47,5.47,0,0,1,1.69-1.42,3.1,3.1,0,0,1,1.58-.41,1.39,1.39,0,0,1,1.07.48,1.16,1.16,0,0,1,.07,1.21,9.29,9.29,0,0,1-.59,1.32l-.73,1.38c-.84,1.38-1.57,2.65-2.21,3.81l-1.84,3.32c-.59,1.06-1.19,2.17-1.81,3.32s-1.31,2.42-2.09,3.8c1.08-1,2.44-2.26,4.08-3.73s3.35-3,5.12-4.5,3.47-2.94,5.11-4.26a34.92,34.92,0,0,1,4.16-2.94,8.47,8.47,0,0,1,2.46-.93,3.67,3.67,0,0,1,2,.07,1.76,1.76,0,0,1,1.06,1.31,4.7,4.7,0,0,1-.4,2.74,35.12,35.12,0,0,1-2.83,4.25l-3.39,4.4q-1.65,2.14-2.94,4.11a10.07,10.07,0,0,0-1.58,3.5c0,.51.36.62,1.1.34a9.31,9.31,0,0,0,1.91-1c1.13-.67,2.42-1.46,3.87-2.39l4.26-2.7c1.24-.77,2.14-1.35,2.74-1.77.39-.53.79-1.07,1.24-1.62a43.72,43.72,0,0,1,4.45-4.7A37.72,37.72,0,0,1,368,168a29.32,29.32,0,0,1,4.89-2.63,17.91,17.91,0,0,1,4.64-1.28,7.62,7.62,0,0,1,3.9.41c.64-.92,1.25-1.84,1.84-2.77s1.15-1.84,1.69-2.76q3.31-5.53,7-10.8a123.14,123.14,0,0,1,8.1-10.31c.19-.23.45-.52.77-.86a8.21,8.21,0,0,1,3.61-2.28c.9-.21,1.36-.06,1.36.44a12.25,12.25,0,0,1-1,2c-.59,1-1.23,2-1.92,3.14s-1.34,2.14-2,3.08-1,1.51-1.18,1.7q-4.71,6.57-9.53,13.46T380.51,172l-3.9,5.51a46.24,46.24,0,0,0-3.53,5.84,4,4,0,0,0-.62,2.18c.07.49.65.41,1.73-.24l9.59-6.11,2.58-1.92c.81-.6,1.55-1.17,2.21-1.73s1.31-1.13,1.95-1.73,1.42-1.31,2.36-2.14a30.79,30.79,0,0,0,2.79-3.22,28.73,28.73,0,0,1,3.17-3.49q.66-.63,1.47-1.32a15.47,15.47,0,0,1,1.62-1.21,5.56,5.56,0,0,1,1.58-.73,1.42,1.42,0,0,1,1.29.21c.39.23.49.87.29,1.91a8.47,8.47,0,0,1-2.57,3.84c-1.38,1.42-2.44,2.49-3.2,3.18s-1.34,1.22-1.73,1.59a2.64,2.64,0,0,0-.7.86,3.15,3.15,0,0,0-.11,1,2.73,2.73,0,0,0,.55,1.21c.32.44.62.84.92,1.21a33.11,33.11,0,0,0,2.1,2.91,4.56,4.56,0,0,1,1.06,3l4.53-3Zm-35.58-2.73,2.1-2c.49-.74,1-1.46,1.47-2.15l1.47-2.07a1.22,1.22,0,0,0-.95-1.49c-.74-.21-1.89.06-3.46.79-.79.37-1.52.74-2.21,1.11s-1.37.79-2.06,1.25c-1,.69-2,1.4-2.91,2.14s-1.85,1.52-2.83,2.36c-.34.32-1,1-1.88,2a41.91,41.91,0,0,0-2.65,3.32,19.52,19.52,0,0,0-2,3.46c-.49,1.11-.49,1.92,0,2.42s1,.43,1.95,0A18,18,0,0,0,363,184c1.21-.85,2.47-1.85,3.79-3s2.59-2.24,3.79-3.35S372.82,175.51,373.78,174.61Z"/></svg>
